<?xml version="1.0" encoding="UTF-8"?>
<svg width="289px" height="53px" viewBox="0 0 289 53" version="1.1" xmlns="http://www.w3.org/2000/svg" xmlns:xlink="http://www.w3.org/1999/xlink">
    <!-- Generator: Sketch 43.2 (39069) - http://www.bohemiancoding.com/sketch -->
    <title>logo</title>
    <desc>Created with Sketch.</desc>
    <defs>
        <linearGradient x1="8.01127901%" y1="0%" x2="100%" y2="100%" id="linearGradient-1">
            <stop stop-color="#A890FF" offset="0%"></stop>
            <stop stop-color="#276BFF" offset="100%"></stop>
        </linearGradient>
        <linearGradient x1="0%" y1="100%" x2="100%" y2="0%" id="linearGradient-2">
            <stop stop-color="#517EF8" offset="0%"></stop>
            <stop stop-color="#2FD8F9" offset="100%"></stop>
        </linearGradient>
    </defs>
    <g id="Page-1" stroke="none" stroke-width="1" fill="none" fill-rule="evenodd">
        <g id="lp" transform="translate(-576.000000, -26.000000)">
            <g id="top-bar">
                <g id="logo" transform="translate(576.000000, 26.000000)">
                    <path d="M22.5876019,5.90842844 L6.75570574,0.76663349 C6.75570574,0.76663349 -3.09646816,-0.939903167 1.2822758,13.8500812 L6.75570574,41.1546677 C6.75570574,41.1546677 8.39773473,50.8250421 15.5131937,51.3938877 L26.3013241,52.6874424 C28.0561057,52.8979153 29.5383106,51.3472423 29.3248468,49.52523 L24.4841453,8.27425709 C24.3544251,7.1667148 23.612228,6.24120309 22.5876019,5.90842844" id="Fill-1" fill="url(#linearGradient-1)"></path>
                    <path d="M57.12,42 L49.2,42 L49.2,14 L56.96,14 C62.84,14 65.84,16.52 65.84,21.72 C65.84,24.12 65,26.2 63.04,27.4 L63.04,27.52 C65.32,28.6 66.76,30.84 66.76,33.4 C66.76,38.16 63.96,42 57.12,42 Z M54.4,37.04 L57.52,37.04 C60.84,37.04 61.8,35.36 61.8,33.4 C61.8,31.48 60.8,30.04 57.48,30.04 L54.4,30.04 L54.4,37.04 Z M54.4,25.48 L56.36,25.48 C59.68,25.48 60.64,23.84 60.64,21.88 C60.64,19.96 59.64,18.96 56.32,18.96 L54.4,18.96 L54.4,25.48 Z M90.44,42 L90.44,37 L82.28,37 L82.28,14 L77.08,14 L77.08,42 L90.44,42 Z M104.64,42 L104.64,14 L99.44,14 L99.44,42 L104.64,42 Z M133.4,42 L133.4,14 L128.76,14 L128.76,29.16 C128.76,29.84 128.8,31 128.8,31.2 L128.72,31.2 C128.72,31.2 128.36,30 128.04,29.32 L121,14 L116.04,14 L116.04,42 L120.68,42 L120.68,26.48 C120.68,25.6 120.64,24.4 120.64,24.4 L120.72,24.4 C120.72,24.4 121.08,25.52 121.4,26.28 L128.56,42 L133.4,42 Z M152.04,42 L144.8,42 L144.8,14 L152.04,14 C159.76,14 162.28,20.72 162.28,28 C162.28,35.28 159.76,42 152.04,42 Z M150,37 L152.04,37 C155.6,37 157.08,33.04 157.08,28 C157.08,22.96 155.6,19 152.04,19 L150,19 L150,37 Z M187.2,42 L187.2,37 L177.52,37 L177.52,31.16 L185.68,31.16 L185.68,26.16 L177.52,26.16 L177.52,19 L187.2,19 L187.2,14 L172.32,14 L172.32,42 L187.2,42 Z M215.44,42 L209.92,42 L206.44,33.36 C206.04,33.4 205.64,33.4 205.24,33.4 L203.44,33.4 L203.44,42 L198.24,42 L198.24,14 L206,14 C212.36,14 215,18.72 215,23.6 C215,26.68 213.8,29.76 211.24,31.64 L215.44,42 Z M203.44,28.4 L205.4,28.4 C208.36,28.4 209.84,26.4 209.84,23.68 C209.84,20.84 208.32,18.96 205.36,18.96 L203.44,18.96 L203.44,28.4 Z M223.24,36.88 C224.64,40.16 227.8,42.4 232.12,42.4 C237.32,42.4 241,39.24 241,34.28 C241,25.04 229.44,26.04 229.44,21.08 C229.44,19.52 230.48,18.6 231.96,18.6 C234.08,18.6 235.28,20.12 235.96,22.44 L240.48,19.64 C239.12,16.12 236.52,13.6 231.96,13.6 C227.4,13.6 224.24,16.92 224.24,21.24 C224.24,29.76 235.8,29.72 235.8,34.28 C235.8,36.44 234.2,37.4 232.12,37.4 C230.12,37.4 228.36,36 227.68,33.88 L223.24,36.88 Z" id="Blinders" fill="#1E1E1E" opacity="0.900000036"></path>
                    <path d="M265.757769,5.90842844 L281.589665,0.76663349 C281.589665,0.76663349 291.441839,-0.939903167 287.063095,13.8500812 L281.589665,41.1546677 C281.589665,41.1546677 279.947636,50.8250421 272.832177,51.3938877 L262.044047,52.6874424 C260.289265,52.8979153 258.80706,51.3472423 259.020524,49.52523 L263.860678,8.27425709 C263.990946,7.1667148 264.733143,6.24120309 265.757769,5.90842844" id="Fill-4" fill="url(#linearGradient-2)"></path>
                </g>
            </g>
        </g>
    </g>
</svg>